<?xml version="1.0" standalone="no"?>
<!DOCTYPE svg PUBLIC "-//W3C//DTD SVG 20010904//EN"
 "http://www.w3.org/TR/2001/REC-SVG-20010904/DTD/svg10.dtd">
<svg version="1.0" xmlns="http://www.w3.org/2000/svg"
 width="500.000000pt" height="500.000000pt" viewBox="0 0 500.000000 500.000000"
 preserveAspectRatio="xMidYMid meet">
<metadata>
Created by potrace 1.14, written by Peter Selinger 2001-2017
</metadata>
<g transform="translate(0.000000,500.000000) scale(0.100000,-0.100000)"
fill="#000000" stroke="none">
<path d="M1803 3544 l-123 -109 0 -152 0 -153 -66 0 c-48 0 -65 -3 -62 -12 3
-8 28 -14 66 -16 l61 -3 3 -477 c3 -475 3 -477 27 -535 31 -78 95 -154 156
-186 65 -34 160 -36 221 -4 65 35 113 96 138 181 15 47 -13 19 -42 -42 -19
-40 -43 -73 -66 -91 -42 -32 -120 -55 -159 -48 l-27 5 0 599 0 598 97 3 c66 2
98 7 101 16 3 9 -21 12 -97 12 l-101 0 -2 262 -3 261 -122 -109z"/>
<path d="M1222 3268 l-2 -78 48 2 47 1 -42 4 -42 4 -4 72 -3 72 -2 -77z"/>
<path d="M1367 3264 c-20 -41 -32 -74 -26 -74 6 0 13 9 16 20 4 16 14 20 50
20 36 0 46 -4 50 -20 4 -16 23 -30 23 -16 0 9 -63 136 -69 140 -4 3 -24 -29
-44 -70z m59 21 c19 -45 19 -45 -16 -45 -16 0 -30 3 -30 7 0 10 24 73 28 73 1
0 10 -16 18 -35z"/>
<path d="M1527 3333 c-11 -10 -8 -143 3 -143 6 0 10 32 10 75 0 75 -1 81 -13
68z"/>
<path d="M2020 3265 c0 -43 4 -75 10 -75 6 0 10 11 10 25 0 22 4 25 35 25 25
0 39 6 50 24 28 42 -6 76 -76 76 l-29 0 0 -75z m97 39 c10 -26 -11 -49 -46
-52 -30 -3 -31 -2 -31 32 0 34 2 36 35 36 24 0 38 -5 42 -16z"/>
<path d="M2201 3268 c-17 -39 -29 -73 -27 -75 2 -3 9 5 16 16 8 16 20 21 50
21 30 0 42 -5 50 -21 7 -11 14 -19 16 -16 7 6 -57 147 -66 147 -4 0 -21 -32
-39 -72z m57 17 c18 -38 15 -45 -18 -45 -16 0 -30 4 -30 10 0 15 23 60 30 60
4 0 12 -11 18 -25z"/>
<path d="M2357 3333 c-10 -16 -7 -143 3 -143 6 0 10 11 10 25 0 22 4 25 34 25
61 0 88 53 44 84 -23 16 -83 22 -91 9z m91 -43 c4 -27 -12 -40 -50 -40 -25 0
-28 4 -28 34 0 38 12 46 50 36 16 -4 26 -15 28 -30z"/>
<path d="M2520 3265 c0 -43 4 -75 10 -75 6 0 10 11 10 25 0 22 4 25 34 25 36
0 66 21 66 46 0 28 -38 54 -80 54 l-40 0 0 -75z m97 39 c10 -26 -11 -49 -46
-52 -30 -3 -31 -2 -31 32 0 34 2 36 35 36 24 0 38 -5 42 -16z"/>
<path d="M2701 3268 c-17 -39 -29 -73 -27 -75 2 -3 9 5 16 16 8 16 20 21 50
21 30 0 42 -5 50 -21 7 -11 14 -19 16 -16 7 6 -57 147 -66 147 -4 0 -21 -32
-39 -72z m57 17 c18 -38 15 -45 -18 -45 -16 0 -30 4 -30 10 0 15 23 60 30 60
4 0 12 -11 18 -25z"/>
<path d="M2292 2963 l1 -78 6 60 6 60 45 -57 c25 -31 48 -57 53 -57 4 -1 7 33
7 75 0 47 -4 73 -10 69 -5 -3 -8 -28 -6 -56 1 -27 0 -49 -4 -49 -4 0 -27 25
-50 55 -23 30 -44 55 -46 55 -2 0 -3 -35 -2 -77z"/>
<path d="M2470 2966 l0 -76 45 0 c78 0 121 66 78 119 -13 15 -34 23 -70 28
l-53 6 0 -77z m110 39 c17 -20 16 -63 -2 -81 -8 -8 -31 -17 -51 -21 l-37 -6 0
62 0 61 39 0 c22 0 44 -6 51 -15z"/>
<path d="M2660 2966 c0 -44 4 -76 10 -76 6 0 10 30 10 69 0 39 -4 73 -10 76
-6 4 -10 -22 -10 -69z"/>
<path d="M2756 2971 c-39 -76 -40 -81 -27 -81 5 0 11 9 14 20 4 16 14 20 50
20 36 0 46 -4 50 -20 3 -11 10 -20 16 -20 8 0 -48 132 -63 147 -3 3 -21 -27
-40 -66z m42 -29 c-17 -2 -32 -1 -34 1 -3 3 3 21 13 42 l18 37 16 -39 16 -38
-29 -3z"/>
<path d="M2891 3035 c0 -5 11 -28 24 -50 14 -22 25 -52 25 -67 0 -16 5 -28 10
-28 6 0 10 12 10 27 0 14 12 46 26 70 14 25 23 47 21 50 -3 2 -16 -14 -29 -36
-25 -45 -34 -50 -42 -23 -8 22 -46 70 -45 57z"/>
<path d="M3060 2965 l0 -75 53 2 52 2 -47 3 c-45 4 -48 6 -48 33 0 27 3 29 43
33 l42 4 -42 1 c-39 2 -43 5 -43 27 0 22 4 25 39 25 22 0 43 5 46 10 4 6 -13
10 -44 10 l-51 0 0 -75z"/>
<path d="M2070 2795 c0 -12 14 -15 64 -15 61 0 65 -1 74 -27 6 -16 55 -134
110 -263 266 -625 362 -855 362 -866 0 -19 -88 -241 -123 -309 -66 -132 -167
-234 -257 -260 -24 -7 -24 -6 7 25 63 62 62 153 -1 216 -69 69 -164 67 -229
-5 -63 -70 -59 -161 8 -220 131 -115 345 -23 474 204 28 49 145 341 316 789
l272 711 88 5 c58 3 90 9 93 18 3 9 -42 12 -203 12 -161 0 -206 -3 -203 -12 3
-9 35 -14 101 -16 53 -1 97 -5 97 -8 0 -16 -304 -794 -311 -794 -4 0 -27 51
-52 113 -26 61 -99 240 -165 397 l-118 285 60 5 c35 3 61 10 64 18 3 9 -54 12
-262 12 -230 0 -266 -2 -266 -15z"/>
</g>
</svg>
